<svg width="243" height="45" viewBox="0 0 243 45" fill="none" xmlns="http://www.w3.org/2000/svg">
<path d="M11.424 36.384C10.24 36.384 9.192 36.216 8.28 35.88C7.384 35.528 6.624 35.04 6 34.416C5.392 33.776 4.928 33.008 4.608 32.112C4.288 31.216 4.128 30.216 4.128 29.112V16.248H2.016C1.632 16.248 1.304 16.128 1.032 15.888C0.76 15.632 0.624 15.264 0.624 14.784V11.88L4.584 11.112L6.048 5.04C6.24 4.272 6.784 3.888 7.68 3.888H11.568V11.16H17.736V16.248H11.568V28.608C11.568 29.184 11.704 29.664 11.976 30.048C12.264 30.416 12.672 30.6 13.2 30.6C13.472 30.6 13.696 30.576 13.872 30.528C14.064 30.464 14.224 30.4 14.352 30.336C14.496 30.256 14.624 30.192 14.736 30.144C14.864 30.08 15.008 30.048 15.168 30.048C15.392 30.048 15.568 30.104 15.696 30.216C15.84 30.312 15.984 30.472 16.128 30.696L18.384 34.224C17.424 34.944 16.344 35.488 15.144 35.856C13.944 36.208 12.704 36.384 11.424 36.384ZM28.3819 13.296C29.2779 12.528 30.2459 11.912 31.2859 11.448C32.3419 10.968 33.5979 10.728 35.0539 10.728C36.4139 10.728 37.6139 10.968 38.6539 11.448C39.7099 11.912 40.5979 12.568 41.3179 13.416C42.0379 14.248 42.5819 15.248 42.9499 16.416C43.3179 17.568 43.5019 18.824 43.5019 20.184V36H36.0619V20.184C36.0619 18.968 35.7819 18.024 35.2219 17.352C34.6619 16.664 33.8379 16.32 32.7499 16.32C31.9339 16.32 31.1659 16.496 30.4459 16.848C29.7419 17.184 29.0539 17.648 28.3819 18.24V36H20.9419V0.0719976H28.3819V13.296ZM63.7969 20.568C63.7969 19.976 63.7169 19.4 63.5569 18.84C63.4129 18.28 63.1649 17.784 62.8129 17.352C62.4769 16.904 62.0289 16.544 61.4689 16.272C60.9089 16 60.2289 15.864 59.4289 15.864C58.0209 15.864 56.9169 16.272 56.1169 17.088C55.3169 17.888 54.7889 19.048 54.5329 20.568H63.7969ZM54.4369 24.888C54.6769 26.968 55.3089 28.48 56.3329 29.424C57.3569 30.352 58.6769 30.816 60.2929 30.816C61.1569 30.816 61.9009 30.712 62.5249 30.504C63.1489 30.296 63.7009 30.064 64.1809 29.808C64.6769 29.552 65.1249 29.32 65.5249 29.112C65.9409 28.904 66.3729 28.8 66.8209 28.8C67.4129 28.8 67.8609 29.016 68.1649 29.448L70.3249 32.112C69.5569 32.992 68.7249 33.712 67.8289 34.272C66.9489 34.816 66.0369 35.248 65.0929 35.568C64.1649 35.872 63.2289 36.08 62.2849 36.192C61.3569 36.32 60.4689 36.384 59.6209 36.384C57.8769 36.384 56.2369 36.104 54.7009 35.544C53.1809 34.968 51.8449 34.12 50.6929 33C49.5569 31.88 48.6529 30.488 47.9809 28.824C47.3249 27.16 46.9969 25.224 46.9969 23.016C46.9969 21.352 47.2769 19.776 47.8369 18.288C48.4129 16.8 49.2289 15.496 50.2849 14.376C51.3569 13.256 52.6449 12.368 54.1489 11.712C55.6689 11.056 57.3809 10.728 59.2849 10.728C60.9329 10.728 62.4369 10.984 63.7969 11.496C65.1729 12.008 66.3489 12.752 67.3249 13.728C68.3169 14.704 69.0849 15.904 69.6289 17.328C70.1889 18.736 70.4689 20.336 70.4689 22.128C70.4689 22.688 70.4449 23.144 70.3969 23.496C70.3489 23.848 70.2609 24.128 70.1329 24.336C70.0049 24.544 69.8289 24.688 69.6049 24.768C69.3969 24.848 69.1249 24.888 68.7889 24.888H54.4369ZM94.7812 22.248C96.0133 22.248 96.9013 21.944 97.4453 21.336C98.0053 20.712 98.2853 19.912 98.2853 18.936C98.2853 17.928 98.0053 17.136 97.4453 16.56C96.9013 15.984 96.0133 15.696 94.7812 15.696C93.5493 15.696 92.6533 15.984 92.0933 16.56C91.5493 17.136 91.2773 17.928 91.2773 18.936C91.2773 19.416 91.3413 19.856 91.4693 20.256C91.6133 20.656 91.8293 21.008 92.1173 21.312C92.4053 21.6 92.7653 21.832 93.1973 22.008C93.6453 22.168 94.1733 22.248 94.7812 22.248ZM100.541 36.912C100.541 36.32 100.277 35.896 99.7493 35.64C99.2213 35.368 98.5333 35.176 97.6853 35.064C96.8373 34.952 95.8853 34.888 94.8293 34.872C93.7893 34.84 92.7493 34.776 91.7093 34.68C91.2453 35 90.8613 35.36 90.5573 35.76C90.2693 36.144 90.1253 36.584 90.1253 37.08C90.1253 37.432 90.1973 37.752 90.3413 38.04C90.5013 38.328 90.7733 38.576 91.1573 38.784C91.5413 38.992 92.0533 39.152 92.6933 39.264C93.3493 39.392 94.1733 39.456 95.1653 39.456C96.2373 39.456 97.1173 39.392 97.8053 39.264C98.4933 39.136 99.0373 38.96 99.4373 38.736C99.8533 38.512 100.141 38.24 100.301 37.92C100.461 37.616 100.541 37.28 100.541 36.912ZM107.885 11.88V14.592C107.885 15.008 107.765 15.336 107.525 15.576C107.301 15.816 106.909 16 106.349 16.128L104.549 16.536C104.645 16.888 104.717 17.248 104.765 17.616C104.829 17.984 104.861 18.368 104.861 18.768C104.861 20.016 104.597 21.136 104.069 22.128C103.557 23.12 102.845 23.968 101.933 24.672C101.037 25.36 99.9733 25.896 98.7413 26.28C97.5093 26.648 96.1892 26.832 94.7812 26.832C94.3973 26.832 94.0213 26.824 93.6533 26.808C93.2853 26.776 92.9253 26.728 92.5733 26.664C92.0293 27 91.7573 27.376 91.7573 27.792C91.7573 28.208 91.9813 28.512 92.4293 28.704C92.8773 28.88 93.4693 29.008 94.2053 29.088C94.9413 29.152 95.7733 29.2 96.7013 29.232C97.6453 29.248 98.6053 29.304 99.5813 29.4C100.557 29.48 101.509 29.624 102.437 29.832C103.381 30.04 104.221 30.376 104.957 30.84C105.693 31.304 106.285 31.928 106.733 32.712C107.181 33.48 107.405 34.464 107.405 35.664C107.405 36.784 107.133 37.88 106.589 38.952C106.045 40.024 105.245 40.976 104.189 41.808C103.133 42.64 101.837 43.304 100.301 43.8C98.7653 44.312 97.0053 44.568 95.0213 44.568C93.0693 44.568 91.3813 44.384 89.9573 44.016C88.5493 43.648 87.3733 43.16 86.4293 42.552C85.5013 41.96 84.8133 41.272 84.3652 40.488C83.9173 39.704 83.6933 38.888 83.6933 38.04C83.6933 36.936 84.0133 36.016 84.6533 35.28C85.2933 34.544 86.1893 33.952 87.3413 33.504C86.7333 33.136 86.2533 32.664 85.9013 32.088C85.5493 31.512 85.3733 30.768 85.3733 29.856C85.3733 29.488 85.4373 29.104 85.5653 28.704C85.6933 28.288 85.8933 27.888 86.1653 27.504C86.4533 27.104 86.8053 26.728 87.2213 26.376C87.6373 26.024 88.1333 25.712 88.7093 25.44C87.4133 24.752 86.3893 23.848 85.6373 22.728C84.8853 21.592 84.5093 20.272 84.5093 18.768C84.5093 17.52 84.7733 16.4 85.3013 15.408C85.8293 14.4 86.5493 13.552 87.4613 12.864C88.3893 12.16 89.4773 11.624 90.7253 11.256C91.9733 10.872 93.3253 10.68 94.7812 10.68C96.8933 10.68 98.7653 11.08 100.397 11.88H107.885ZM117.949 14.952C118.717 13.608 119.597 12.552 120.589 11.784C121.597 11.016 122.749 10.632 124.045 10.632C125.165 10.632 126.077 10.896 126.781 11.424L126.301 16.896C126.221 17.248 126.085 17.488 125.893 17.616C125.717 17.744 125.469 17.808 125.149 17.808C125.021 17.808 124.853 17.8 124.645 17.784C124.437 17.768 124.221 17.752 123.997 17.736C123.773 17.704 123.541 17.68 123.301 17.664C123.077 17.632 122.869 17.616 122.677 17.616C121.589 17.616 120.717 17.904 120.061 18.48C119.421 19.056 118.877 19.856 118.429 20.88V36H110.989V11.112H115.405C115.773 11.112 116.077 11.144 116.317 11.208C116.573 11.272 116.781 11.376 116.941 11.52C117.117 11.648 117.245 11.824 117.325 12.048C117.421 12.272 117.501 12.544 117.565 12.864L117.949 14.952ZM140.367 10.728C142.255 10.728 143.975 11.024 145.527 11.616C147.079 12.208 148.407 13.056 149.511 14.16C150.631 15.264 151.495 16.608 152.103 18.192C152.727 19.76 153.039 21.528 153.039 23.496C153.039 25.48 152.727 27.272 152.103 28.872C151.495 30.456 150.631 31.808 149.511 32.928C148.407 34.032 147.079 34.888 145.527 35.496C143.975 36.088 142.255 36.384 140.367 36.384C138.463 36.384 136.727 36.088 135.159 35.496C133.607 34.888 132.263 34.032 131.127 32.928C130.007 31.808 129.135 30.456 128.511 28.872C127.903 27.272 127.599 25.48 127.599 23.496C127.599 21.528 127.903 19.76 128.511 18.192C129.135 16.608 130.007 15.264 131.127 14.16C132.263 13.056 133.607 12.208 135.159 11.616C136.727 11.024 138.463 10.728 140.367 10.728ZM140.367 30.864C142.079 30.864 143.335 30.264 144.135 29.064C144.951 27.848 145.359 26.008 145.359 23.544C145.359 21.08 144.951 19.248 144.135 18.048C143.335 16.848 142.079 16.248 140.367 16.248C138.607 16.248 137.319 16.848 136.503 18.048C135.687 19.248 135.279 21.08 135.279 23.544C135.279 26.008 135.687 27.848 136.503 29.064C137.319 30.264 138.607 30.864 140.367 30.864ZM168.258 10.728C170.146 10.728 171.866 11.024 173.418 11.616C174.97 12.208 176.298 13.056 177.402 14.16C178.522 15.264 179.386 16.608 179.994 18.192C180.618 19.76 180.93 21.528 180.93 23.496C180.93 25.48 180.618 27.272 179.994 28.872C179.386 30.456 178.522 31.808 177.402 32.928C176.298 34.032 174.97 34.888 173.418 35.496C171.866 36.088 170.146 36.384 168.258 36.384C166.354 36.384 164.618 36.088 163.05 35.496C161.498 34.888 160.154 34.032 159.018 32.928C157.898 31.808 157.026 30.456 156.402 28.872C155.794 27.272 155.49 25.48 155.49 23.496C155.49 21.528 155.794 19.76 156.402 18.192C157.026 16.608 157.898 15.264 159.018 14.16C160.154 13.056 161.498 12.208 163.05 11.616C164.618 11.024 166.354 10.728 168.258 10.728ZM168.258 30.864C169.97 30.864 171.226 30.264 172.026 29.064C172.842 27.848 173.25 26.008 173.25 23.544C173.25 21.08 172.842 19.248 172.026 18.048C171.226 16.848 169.97 16.248 168.258 16.248C166.498 16.248 165.21 16.848 164.394 18.048C163.578 19.248 163.17 21.08 163.17 23.544C163.17 26.008 163.578 27.848 164.394 29.064C165.21 30.264 166.498 30.864 168.258 30.864ZM207.281 11.112L197.633 36H190.865L181.216 11.112H187.409C187.937 11.112 188.377 11.24 188.729 11.496C189.097 11.736 189.345 12.04 189.473 12.408L192.929 23.568C193.233 24.48 193.497 25.368 193.721 26.232C193.961 27.096 194.169 27.96 194.345 28.824C194.697 27.096 195.185 25.344 195.809 23.568L199.409 12.408C199.537 12.04 199.777 11.736 200.129 11.496C200.481 11.24 200.897 11.112 201.377 11.112H207.281ZM224.344 20.568C224.344 19.976 224.264 19.4 224.104 18.84C223.96 18.28 223.712 17.784 223.36 17.352C223.024 16.904 222.576 16.544 222.016 16.272C221.456 16 220.776 15.864 219.976 15.864C218.568 15.864 217.464 16.272 216.664 17.088C215.864 17.888 215.336 19.048 215.08 20.568H224.344ZM214.984 24.888C215.224 26.968 215.856 28.48 216.88 29.424C217.904 30.352 219.224 30.816 220.84 30.816C221.704 30.816 222.448 30.712 223.072 30.504C223.696 30.296 224.248 30.064 224.728 29.808C225.224 29.552 225.672 29.32 226.072 29.112C226.488 28.904 226.92 28.8 227.368 28.8C227.96 28.8 228.408 29.016 228.712 29.448L230.872 32.112C230.104 32.992 229.272 33.712 228.376 34.272C227.496 34.816 226.584 35.248 225.64 35.568C224.712 35.872 223.776 36.08 222.832 36.192C221.904 36.32 221.016 36.384 220.168 36.384C218.424 36.384 216.784 36.104 215.248 35.544C213.728 34.968 212.392 34.12 211.24 33C210.104 31.88 209.2 30.488 208.528 28.824C207.872 27.16 207.544 25.224 207.544 23.016C207.544 21.352 207.824 19.776 208.384 18.288C208.96 16.8 209.776 15.496 210.832 14.376C211.904 13.256 213.192 12.368 214.696 11.712C216.216 11.056 217.928 10.728 219.832 10.728C221.48 10.728 222.984 10.984 224.344 11.496C225.72 12.008 226.896 12.752 227.872 13.728C228.864 14.704 229.632 15.904 230.176 17.328C230.736 18.736 231.016 20.336 231.016 22.128C231.016 22.688 230.992 23.144 230.944 23.496C230.896 23.848 230.808 24.128 230.68 24.336C230.552 24.544 230.376 24.688 230.152 24.768C229.944 24.848 229.672 24.888 229.336 24.888H214.984ZM233.731 32.232C233.731 31.656 233.835 31.12 234.043 30.624C234.267 30.128 234.563 29.696 234.931 29.328C235.315 28.96 235.763 28.672 236.275 28.464C236.787 28.24 237.347 28.128 237.955 28.128C238.547 28.128 239.099 28.24 239.611 28.464C240.123 28.672 240.571 28.96 240.955 29.328C241.339 29.696 241.635 30.128 241.843 30.624C242.067 31.12 242.179 31.656 242.179 32.232C242.179 32.808 242.067 33.352 241.843 33.864C241.635 34.36 241.339 34.792 240.955 35.16C240.571 35.528 240.123 35.816 239.611 36.024C239.099 36.232 238.547 36.336 237.955 36.336C237.347 36.336 236.787 36.232 236.275 36.024C235.763 35.816 235.315 35.528 234.931 35.16C234.563 34.792 234.267 34.36 234.043 33.864C233.835 33.352 233.731 32.808 233.731 32.232Z" fill="white"/>
</svg>
